<svg width="14" height="15" viewBox="0 0 14 15" fill="none" xmlns="http://www.w3.org/2000/svg">
<g clip-path="url(#clip0_1_135)">
<path d="M6.39374 4.5675C6.39374 4.88 6.34426 5.17558 6.2453 5.45422C6.14634 5.73287 5.98228 5.97375 5.75311 6.17688C5.52395 6.38 5.25051 6.48157 4.9328 6.48157C4.53697 6.48157 4.17759 6.33183 3.85468 6.03235C3.53176 5.73287 3.29218 5.38 3.13593 4.97375C2.97968 4.5675 2.90155 4.17428 2.90155 3.79407C2.90155 3.48157 2.95103 3.18599 3.04999 2.90735C3.14895 2.6287 3.31301 2.38782 3.54218 2.18469C3.77134 1.98157 4.04478 1.88 4.36249 1.88C4.76353 1.88 5.12421 2.02974 5.44452 2.32922C5.76483 2.6287 6.00311 2.98027 6.15936 3.38391C6.31561 3.78756 6.39374 4.18209 6.39374 4.5675ZM3.72186 8.34094C3.72186 8.75761 3.61249 9.11959 3.39374 9.42688C3.17499 9.73417 2.86509 9.88782 2.46405 9.88782C2.06822 9.88782 1.69973 9.74329 1.35858 9.45422C1.01744 9.16516 0.755717 8.8175 0.573425 8.41125C0.391134 8.005 0.299988 7.60917 0.299988 7.22375C0.299988 6.80709 0.409363 6.44381 0.628113 6.13391C0.846863 5.82402 1.15676 5.66907 1.5578 5.66907C1.95363 5.66907 2.32212 5.8136 2.66327 6.10266C3.00441 6.39172 3.26613 6.74068 3.44843 7.14954C3.63072 7.55839 3.72186 7.95553 3.72186 8.34094ZM6.79999 8.13C7.41457 8.13 8.07863 8.38391 8.79218 8.89172C9.50572 9.39954 10.1021 10.0167 10.5812 10.7433C11.0604 11.4698 11.3 12.1326 11.3 12.7316C11.3 12.9712 11.2557 13.1704 11.1672 13.3292C11.0786 13.4881 10.9523 13.6053 10.7883 13.6808C10.6242 13.7563 10.4562 13.8084 10.2844 13.837C10.1125 13.8657 9.91457 13.88 9.69061 13.88C9.33645 13.88 8.84816 13.7628 8.22577 13.5284C7.60337 13.2941 7.12811 13.1769 6.79999 13.1769C6.45624 13.1769 5.95494 13.2928 5.29608 13.5245C4.63723 13.7563 4.11509 13.8722 3.72968 13.8722C2.77655 13.8722 2.29999 13.492 2.29999 12.7316C2.29999 12.2837 2.44582 11.785 2.73749 11.2355C3.02915 10.686 3.39244 10.1847 3.82733 9.73157C4.26223 9.27844 4.75051 8.89823 5.29218 8.59094C5.83384 8.28365 6.33645 8.13 6.79999 8.13ZM8.66718 6.48157C8.34947 6.48157 8.07603 6.38 7.84686 6.17688C7.6177 5.97375 7.45363 5.73287 7.35468 5.45422C7.25572 5.17558 7.20624 4.88 7.20624 4.5675C7.20624 4.18209 7.28436 3.78756 7.44061 3.38391C7.59686 2.98027 7.83514 2.6287 8.15546 2.32922C8.47577 2.02974 8.83645 1.88 9.23749 1.88C9.5552 1.88 9.82863 1.98157 10.0578 2.18469C10.287 2.38782 10.451 2.6287 10.55 2.90735C10.6489 3.18599 10.6984 3.48157 10.6984 3.79407C10.6984 4.17428 10.6203 4.5675 10.4641 4.97375C10.3078 5.38 10.0682 5.73287 9.7453 6.03235C9.42238 6.33183 9.06301 6.48157 8.66718 6.48157ZM12.0422 5.66907C12.4432 5.66907 12.7531 5.82402 12.9719 6.13391C13.1906 6.44381 13.3 6.80709 13.3 7.22375C13.3 7.60917 13.2088 8.005 13.0266 8.41125C12.8443 8.8175 12.5825 9.16516 12.2414 9.45422C11.9002 9.74329 11.5318 9.88782 11.1359 9.88782C10.7349 9.88782 10.425 9.73417 10.2062 9.42688C9.98749 9.11959 9.87811 8.75761 9.87811 8.34094C9.87811 7.95553 9.96926 7.55839 10.1516 7.14954C10.3338 6.74068 10.5956 6.39172 10.9367 6.10266C11.2779 5.8136 11.6463 5.66907 12.0422 5.66907Z" fill="white"/>
</g>
<defs>
<clipPath id="clip0_1_135">
<rect width="13" height="14" fill="white" transform="matrix(1 0 0 -1 0.299988 14.88)"/>
</clipPath>
</defs>
</svg>
