<svg width="11" height="15" viewBox="0 0 11 15" fill="none" xmlns="http://www.w3.org/2000/svg">
<g clip-path="url(#clip0_1_125)">
<path d="M9.39374 1.88C9.51353 1.88 9.62811 1.90344 9.73749 1.95032C9.90936 2.01803 10.0461 2.1248 10.1476 2.27063C10.2492 2.41646 10.3 2.57792 10.3 2.755V12.8253C10.3 13.0024 10.2492 13.1639 10.1476 13.3097C10.0461 13.4555 9.90936 13.5623 9.73749 13.63C9.63853 13.6717 9.52395 13.6925 9.39374 13.6925C9.14374 13.6925 8.92759 13.6092 8.7453 13.4425L5.29999 10.13L1.85468 13.4425C1.66718 13.6144 1.45103 13.7003 1.20624 13.7003C1.08645 13.7003 0.971863 13.6769 0.862488 13.63C0.690613 13.5623 0.553894 13.4555 0.452332 13.3097C0.350769 13.1639 0.299988 13.0024 0.299988 12.8253V2.755C0.299988 2.57792 0.350769 2.41646 0.452332 2.27063C0.553894 2.1248 0.690613 2.01803 0.862488 1.95032C0.971863 1.90344 1.08645 1.88 1.20624 1.88H9.39374Z" fill="white"/>
</g>
<defs>
<clipPath id="clip0_1_125">
<rect width="10" height="14" fill="white" transform="matrix(1 0 0 -1 0.299988 14.88)"/>
</clipPath>
</defs>
</svg>
