<svg width="17" height="15" viewBox="0 0 17 15" fill="none" xmlns="http://www.w3.org/2000/svg">
<g clip-path="url(#clip0_1_120)">
<path d="M8.01093 10.548C8.01093 10.548 8.0591 10.4926 8.15546 10.382C8.25181 10.2713 8.29999 10.0493 8.29999 9.71594C8.29999 9.38261 8.27655 9.07662 8.22968 8.79797C8.1828 8.51933 8.10598 8.2511 7.99921 7.99329C7.89244 7.73547 7.73488 7.53235 7.52655 7.38391C7.31822 7.23547 7.06561 7.16125 6.76874 7.16125C6.73749 7.18209 6.65936 7.22896 6.53436 7.30188C6.40936 7.3748 6.31171 7.43079 6.24139 7.46985C6.17108 7.50891 6.07863 7.55448 5.96405 7.60657C5.84947 7.65865 5.73749 7.69641 5.62811 7.71985C5.51874 7.74329 5.40936 7.755 5.29999 7.755C5.19061 7.755 5.08124 7.74329 4.97186 7.71985C4.86249 7.69641 4.75051 7.65865 4.63593 7.60657C4.52134 7.55448 4.42889 7.50891 4.35858 7.46985C4.28827 7.43079 4.19061 7.3748 4.06561 7.30188C3.94061 7.22896 3.86249 7.18209 3.83124 7.16125C3.53436 7.16125 3.28176 7.23547 3.07343 7.38391C2.86509 7.53235 2.70754 7.73547 2.60077 7.99329C2.494 8.2511 2.41718 8.51933 2.3703 8.79797C2.32343 9.07662 2.29999 9.38261 2.29999 9.71594C2.29999 10.0493 2.39634 10.3266 2.58905 10.548C2.78176 10.7693 3.01874 10.88 3.29999 10.88H7.29999C7.58124 10.88 7.81822 10.7693 8.01093 10.548ZM6.55389 6.90735C6.55389 6.90735 6.64048 6.82076 6.81366 6.64758C6.98684 6.47441 7.07343 6.14303 7.07343 5.65344C7.07343 5.16386 6.90025 4.74589 6.55389 4.39954C6.20754 4.05318 5.78957 3.88 5.29999 3.88C4.8104 3.88 4.39244 4.05318 4.04608 4.39954C3.69973 4.74589 3.52655 5.16386 3.52655 5.65344C3.52655 6.14303 3.69973 6.56099 4.04608 6.90735C4.39244 7.2537 4.8104 7.42688 5.29999 7.42688C5.78957 7.42688 6.20754 7.2537 6.55389 6.90735ZM14.3 9.63V9.13C14.3 9.05709 14.2766 8.99719 14.2297 8.95032C14.1828 8.90344 14.1229 8.88 14.05 8.88H9.54999C9.47707 8.88 9.41718 8.90344 9.3703 8.95032C9.32343 8.99719 9.29999 9.05709 9.29999 9.13V9.63C9.29999 9.70292 9.32343 9.76282 9.3703 9.80969C9.41718 9.85657 9.47707 9.88 9.54999 9.88H14.05C14.1229 9.88 14.1828 9.85657 14.2297 9.80969C14.2766 9.76282 14.3 9.70292 14.3 9.63ZM14.3 7.59875V7.16125C14.3 7.08313 14.2726 7.01672 14.218 6.96204C14.1633 6.90735 14.0969 6.88 14.0187 6.88H9.58124C9.50311 6.88 9.43671 6.90735 9.38202 6.96204C9.32733 7.01672 9.29999 7.08313 9.29999 7.16125V7.59875C9.29999 7.67688 9.32733 7.74329 9.38202 7.79797C9.43671 7.85266 9.50311 7.88 9.58124 7.88H14.0187C14.0969 7.88 14.1633 7.85266 14.218 7.79797C14.2726 7.74329 14.3 7.67688 14.3 7.59875ZM14.3 5.63V5.13C14.3 5.05709 14.2766 4.99719 14.2297 4.95032C14.1828 4.90344 14.1229 4.88 14.05 4.88H9.54999C9.47707 4.88 9.41718 4.90344 9.3703 4.95032C9.32343 4.99719 9.29999 5.05709 9.29999 5.13V5.63C9.29999 5.70292 9.32343 5.76282 9.3703 5.80969C9.41718 5.85657 9.47707 5.88 9.54999 5.88H14.05C14.1229 5.88 14.1828 5.85657 14.2297 5.80969C14.2766 5.76282 14.3 5.70292 14.3 5.63ZM16.3 3.13V12.63C16.3 12.9738 16.1776 13.268 15.9328 13.5128C15.688 13.7576 15.3937 13.88 15.05 13.88H12.3V13.13C12.3 13.0571 12.2766 12.9972 12.2297 12.9503C12.1828 12.9034 12.1229 12.88 12.05 12.88H11.55C11.4771 12.88 11.4172 12.9034 11.3703 12.9503C11.3234 12.9972 11.3 13.0571 11.3 13.13V13.88H5.29999V13.13C5.29999 13.0571 5.27655 12.9972 5.22968 12.9503C5.1828 12.9034 5.1229 12.88 5.04999 12.88H4.54999C4.47707 12.88 4.41718 12.9034 4.3703 12.9503C4.32343 12.9972 4.29999 13.0571 4.29999 13.13V13.88H1.54999C1.20624 13.88 0.911967 13.7576 0.667175 13.5128C0.422384 13.268 0.299988 12.9738 0.299988 12.63V3.13C0.299988 2.78625 0.422384 2.49198 0.667175 2.24719C0.911967 2.0024 1.20624 1.88 1.54999 1.88H15.05C15.3937 1.88 15.688 2.0024 15.9328 2.24719C16.1776 2.49198 16.3 2.78625 16.3 3.13Z" fill="white"/>
</g>
<defs>
<clipPath id="clip0_1_120">
<rect width="16" height="14" fill="white" transform="matrix(1 0 0 -1 0.299988 14.88)"/>
</clipPath>
</defs>
</svg>
