<svg width="14" height="15" viewBox="0 0 14 15" fill="none" xmlns="http://www.w3.org/2000/svg">
<g clip-path="url(#clip0_1_130)">
<path d="M11.0977 8.63V12.38C11.0977 12.5154 11.0483 12.6326 10.9493 12.7316C10.8503 12.8305 10.7331 12.88 10.5977 12.88H7.59773V9.88H5.59773V12.88H2.59773C2.46231 12.88 2.34513 12.8305 2.24617 12.7316C2.14721 12.6326 2.09773 12.5154 2.09773 12.38V8.63C2.09773 8.6248 2.09903 8.61698 2.10164 8.60657C2.10424 8.59615 2.10554 8.58834 2.10554 8.58313L6.59773 4.88L11.0899 8.58313C11.0951 8.59355 11.0977 8.60917 11.0977 8.63ZM12.8399 8.09094L12.3555 8.66907C12.3139 8.71594 12.2592 8.74459 12.1915 8.755H12.168C12.1003 8.755 12.0456 8.73678 12.004 8.70032L6.59773 4.1925L1.19148 8.70032C1.12898 8.74198 1.06648 8.76021 1.00398 8.755C0.936273 8.74459 0.881585 8.71594 0.839918 8.66907L0.355543 8.09094C0.313877 8.03886 0.295648 7.97766 0.300856 7.90735C0.306064 7.83704 0.33471 7.78105 0.386793 7.73938L6.00398 3.05969C6.17065 2.92428 6.36856 2.85657 6.59773 2.85657C6.8269 2.85657 7.02481 2.92428 7.19148 3.05969L9.09773 4.65344V3.13C9.09773 3.05709 9.12117 2.99719 9.16804 2.95032C9.21492 2.90344 9.27481 2.88 9.34773 2.88H10.8477C10.9206 2.88 10.9805 2.90344 11.0274 2.95032C11.0743 2.99719 11.0977 3.05709 11.0977 3.13V6.3175L12.8087 7.73938C12.8608 7.78105 12.8894 7.83704 12.8946 7.90735C12.8998 7.97766 12.8816 8.03886 12.8399 8.09094Z" fill="white"/>
</g>
<defs>
<clipPath id="clip0_1_130">
<rect width="13" height="14" fill="white" transform="matrix(1 0 0 -1 0.299988 14.88)"/>
</clipPath>
</defs>
</svg>
