<svg width="36" height="36" viewBox="0 0 36 36" fill="none" xmlns="http://www.w3.org/2000/svg">
<rect x="0.0299988" y="0.800003" width="35" height="35" rx="17.5" fill="#A597E7"/>
<g clip-path="url(#clip0_1_50)">
<path d="M24.3871 18.3714C23.4824 16.9667 22.3485 15.9161 20.9854 15.2196C21.3485 15.8387 21.53 16.5083 21.53 17.2286C21.53 18.3298 21.1386 19.2717 20.3559 20.0545C19.5732 20.8372 18.6312 21.2286 17.53 21.2286C16.4288 21.2286 15.4868 20.8372 14.7041 20.0545C13.9214 19.2717 13.53 18.3298 13.53 17.2286C13.53 16.5083 13.7115 15.8387 14.0746 15.2196C12.7115 15.9161 11.5776 16.9667 10.6729 18.3714C11.4645 19.5917 12.4571 20.5634 13.6505 21.2866C14.844 22.0098 16.1371 22.3714 17.53 22.3714C18.9229 22.3714 20.216 22.0098 21.4095 21.2866C22.6029 20.5634 23.5955 19.5917 24.3871 18.3714ZM17.8336 15.2464C17.8336 15.2464 17.8544 15.2256 17.8961 15.1839C17.9377 15.1423 17.9586 15.0619 17.9586 14.9429C17.9586 14.8238 17.9169 14.7226 17.8336 14.6393C17.7502 14.5559 17.649 14.5143 17.53 14.5143C16.786 14.5143 16.1476 14.7807 15.6148 15.3134C15.0821 15.8461 14.8157 16.4845 14.8157 17.2286C14.8157 17.3476 14.8574 17.4488 14.9407 17.5321C15.024 17.6155 15.1252 17.6571 15.2443 17.6571C15.3633 17.6571 15.4645 17.6155 15.5479 17.5321C15.6312 17.4488 15.6729 17.3476 15.6729 17.2286C15.6729 16.7167 15.8544 16.2792 16.2175 15.9161C16.5806 15.553 17.0181 15.3714 17.53 15.3714C17.649 15.3714 17.7502 15.3298 17.8336 15.2464ZM25.3514 17.7554C25.4705 17.9637 25.53 18.169 25.53 18.3714C25.53 18.5738 25.4705 18.7792 25.3514 18.9875C24.5181 20.3565 23.3976 21.4533 21.9898 22.2777C20.5821 23.1021 19.0955 23.5143 17.53 23.5143C15.9645 23.5143 14.4779 23.1006 13.0702 22.2732C11.6624 21.4458 10.5419 20.3506 9.70857 18.9875C9.58952 18.7792 9.53 18.5738 9.53 18.3714C9.53 18.169 9.58952 17.9637 9.70857 17.7554C10.5419 16.3923 11.6624 15.297 13.0702 14.4696C14.4779 13.6423 15.9645 13.2286 17.53 13.2286C19.0955 13.2286 20.5821 13.6423 21.9898 14.4696C23.3976 15.297 24.5181 16.3923 25.3514 17.7554Z" fill="white"/>
</g>
<defs>
<clipPath id="clip0_1_50">
<rect width="16" height="16" fill="white" transform="matrix(1 0 0 -1 9.53 25.8)"/>
</clipPath>
</defs>
</svg>
