<svg width="36" height="36" viewBox="0 0 36 36" fill="none" xmlns="http://www.w3.org/2000/svg">
<rect x="0.0299988" y="0.800003" width="35" height="35" rx="17.5" fill="#84BED6"/>
<g clip-path="url(#clip0_1_36)">
<path d="M17.9229 24.4964C17.8157 24.6036 17.6848 24.6572 17.53 24.6572C17.3752 24.6572 17.2443 24.6036 17.1371 24.4964L11.5657 19.1214C11.5062 19.0738 11.4243 18.9964 11.3202 18.8893C11.216 18.7822 11.0508 18.5872 10.8246 18.3045C10.5985 18.0217 10.3961 17.7316 10.2175 17.4339C10.0389 17.1363 9.8797 16.7762 9.73982 16.3536C9.59994 15.931 9.53 15.5202 9.53 15.1214C9.53 13.8119 9.90798 12.7881 10.6639 12.05C11.4199 11.3119 12.4645 10.9429 13.7979 10.9429C14.1669 10.9429 14.5434 11.0069 14.9273 11.1348C15.3112 11.2628 15.6684 11.4354 15.9987 11.6527C16.3291 11.8699 16.6133 12.0738 16.8514 12.2643C17.0895 12.4548 17.3157 12.6571 17.53 12.8714C17.7443 12.6571 17.9705 12.4548 18.2086 12.2643C18.4467 12.0738 18.7309 11.8699 19.0612 11.6527C19.3916 11.4354 19.7487 11.2628 20.1327 11.1348C20.5166 11.0069 20.8931 10.9429 21.2621 10.9429C22.5955 10.9429 23.6401 11.3119 24.3961 12.05C25.152 12.7881 25.53 13.8119 25.53 15.1214C25.53 16.4369 24.8485 17.7762 23.4854 19.1393L17.9229 24.4964Z" fill="white"/>
</g>
<defs>
<clipPath id="clip0_1_36">
<rect width="16" height="16" fill="white" transform="matrix(1 0 0 -1 9.53 25.8)"/>
</clipPath>
</defs>
</svg>
