<svg width="36" height="36" viewBox="0 0 36 36" fill="none" xmlns="http://www.w3.org/2000/svg">
<rect x="0.0299988" y="0.800003" width="35" height="35" rx="17.5" fill="#B5D56A"/>
<g clip-path="url(#clip0_1_22)">
<path d="M23.2443 22.2911C23.2443 22.9399 23.0583 23.4964 22.6862 23.9607C22.3142 24.425 21.8663 24.6572 21.3425 24.6572H13.7175C13.1937 24.6572 12.7458 24.425 12.3737 23.9607C12.0017 23.4964 11.8157 22.9399 11.8157 22.2911C11.8157 21.7851 11.841 21.3074 11.8916 20.858C11.9422 20.4086 12.0359 19.9563 12.1728 19.5009C12.3098 19.0455 12.4839 18.6557 12.6952 18.3313C12.9065 18.0069 13.1862 17.742 13.5345 17.5366C13.8827 17.3313 14.283 17.2286 14.7353 17.2286C15.5151 17.9905 16.4467 18.3714 17.53 18.3714C18.6133 18.3714 19.5449 17.9905 20.3246 17.2286C20.777 17.2286 21.1773 17.3313 21.5255 17.5366C21.8737 17.742 22.1535 18.0069 22.3648 18.3313C22.5761 18.6557 22.7502 19.0455 22.8871 19.5009C23.024 19.9563 23.1178 20.4086 23.1684 20.858C23.219 21.3074 23.2443 21.7851 23.2443 22.2911ZM19.9541 11.9473C19.9541 11.9473 20.1215 12.1147 20.4563 12.4496C20.7912 12.7844 20.9586 13.425 20.9586 14.3714C20.9586 15.3179 20.6237 16.1259 19.9541 16.7955C19.2845 17.4652 18.4764 17.8 17.53 17.8C16.5836 17.8 15.7755 17.4652 15.1059 16.7955C14.4362 16.1259 14.1014 15.3179 14.1014 14.3714C14.1014 13.425 14.4362 12.617 15.1059 11.9473C15.7755 11.2777 16.5836 10.9429 17.53 10.9429C18.4764 10.9429 19.2845 11.2777 19.9541 11.9473Z" fill="white"/>
</g>
<defs>
<clipPath id="clip0_1_22">
<rect width="11.44" height="16" fill="white" transform="matrix(1 0 0 -1 11.81 25.8)"/>
</clipPath>
</defs>
</svg>
